<?xml version="1.0" encoding="UTF-8" standalone="no"?>
<svg width="215px" height="50px" viewBox="0 0 215 50" version="1.1" xmlns="http://www.w3.org/2000/svg" xmlns:xlink="http://www.w3.org/1999/xlink" xmlns:sketch="http://www.bohemiancoding.com/sketch/ns">
    <!-- Generator: Sketch 3.3.3 (12072) - http://www.bohemiancoding.com/sketch -->
    <title>Equator + Imported Layers + Imported Layers Copy</title>
    <desc>Created with Sketch.</desc>
    <defs></defs>
    <g id="Page-1" stroke="none" stroke-width="1" fill="none" fill-rule="evenodd" sketch:type="MSPage">
        <g id="Sign-In-Error" sketch:type="MSArtboardGroup" transform="translate(-613.000000, -198.000000)">
            <g id="Equator-+-Imported-Layers-+-Imported-Layers-Copy" sketch:type="MSLayerGroup" transform="translate(613.000000, 198.000000)">
                <g id="Equator-+-Imported-Layers" transform="translate(59.939394, 11.769231)" font-size="23.4545455" font-family="DaxlinePro" fill="#4A4A4A" sketch:type="MSTextLayer" font-weight="bold">
                    <text id="Survey-Builder">
                        <tspan x="0" y="24">Survey Builder</tspan>
                    </text>
                </g>
                <g id="Imported-Layers" sketch:type="MSShapeGroup">
                    <path d="M6.02389799,28.563013 C8.97222986,23.3062444 12.563696,18.6455075 17.1734582,14.689385 C21.3859034,11.0466376 26.4383479,7.97432288 32.5725999,5.5944629 L28.1156033,2.99274433 C22.879376,5.3282326 18.379124,8.19682145 14.4933099,11.5460328 C10.2587095,15.1770472 6.82802686,19.4043066 3.93350052,24.0106455 C2.49974148,20.2345697 1.46625336,16.2699141 0.810458936,12.1936892 C0.31966813,12.9029967 0.0424114153,13.7569389 0.0424114153,14.652053 L0.0424114153,35.2661288 C0.0424114153,36.4765381 0.548183368,37.61271 1.40675077,38.4152408 C2.48602634,35.6029699 3.70329726,32.9069614 5.00560201,30.3513212 C6.45286519,33.0609825 8.22169551,35.6622744 10.2051149,37.9926429 C13.9740338,42.4673599 18.7038561,46.2189032 24.506202,49.0322408 L26.3303148,47.9673195 C16.7854254,43.642997 10.2179861,36.771994 6.02389799,28.563013 L6.02389799,28.563013 Z M0.181250775,30.8933814 L0.181250775,17.5074157 C0.877979597,20.3254463 1.735703,23.0895057 2.80780449,25.7449823 C1.89648657,27.4249211 1.03876317,29.1048599 0.181250775,30.8933814 L0.181250775,30.8933814 Z" id="Fill-1" fill="#FFFFFF"></path>
                    <path d="M0.181250775,30.8933814 C1.03876317,29.1048599 1.89648657,27.4249211 2.80780449,25.7449823 C1.735703,23.0895057 0.877979597,20.3254463 0.181250775,17.5074157 L0.181250775,30.8933814" id="Fill-2" fill="#AAB538"></path>
                    <path d="M14.4933099,11.5460328 C18.379124,8.19682145 22.879376,5.3282326 28.1156033,2.99274433 L24.0660517,0.629097086 C22.7529858,-0.137381663 21.135233,-0.137381663 19.8223781,0.629097086 L2.16424819,10.936135 C1.61775284,11.25527 1.16030036,11.6878943 0.810458936,12.1936892 C1.46625336,16.2699141 2.49974148,20.2345697 3.93350052,24.0106455 C6.82802686,19.4043066 10.2587095,15.1770472 14.4933099,11.5460328" id="Fill-3" fill="#AAB538"></path>
                    <path d="M43.8460183,35.2661288 L43.8460183,14.652053 C43.8460183,13.1190955 43.0372474,11.7026138 41.7241816,10.936135 L32.5725999,5.5944629 C26.4383479,7.97432288 21.3859034,11.0466376 17.1734582,14.689385 C12.563696,18.6455075 8.97222986,23.3062444 6.02389799,28.563013 C10.2179861,36.771994 16.7854254,43.642997 26.3303148,47.9673195 L41.7241816,38.9820468 C43.0372474,38.2155681 43.8460183,36.7990863 43.8460183,35.2661288" id="Fill-4" fill="#05446A"></path>
                    <path d="M10.2051149,37.9926429 C8.22169551,35.6622744 6.45286519,33.0609825 5.00560201,30.3513212 C3.70329726,32.9069614 2.48602634,35.6029699 1.40675077,38.4152408 C1.63547701,38.6292063 1.88804649,38.8205594 2.16424819,38.9820468 L19.8223781,49.2890847 C21.135233,50.0555635 22.7529858,50.0555635 24.0660517,49.2890847 L24.506202,49.0322408 C18.7038561,46.2189032 13.9740338,42.4673599 10.2051149,37.9926429" id="Fill-5" fill="#05446A"></path>
                </g>
            </g>
        </g>
    </g>
</svg>