<svg width="168" height="50" viewBox="0 0 168 50" xmlns="http://www.w3.org/2000/svg"><title>Logo</title><g fill="none" fill-rule="evenodd"><path d="M67.592 27.14c0-2.095-1.685-2.912-2.976-3.55-.867-.425-1.67-.867-1.67-1.685 0-.834.64-1.39 1.637-1.39.752 0 1.52.278 1.946.524l.72-1.866c-.607-.36-1.604-.638-2.765-.638-2.372 0-3.843 1.39-3.843 3.5 0 2.077 1.65 2.96 2.976 3.565.867.394 1.62.82 1.62 1.653 0 .867-.704 1.44-1.8 1.44-.8 0-1.652-.246-2.175-.557l-.752 1.995c.67.36 1.88.64 3.043.64 2.55 0 4.04-1.473 4.04-3.63zm8.93 2.99V21.76h-2.225v6.983c-.245.1-.72.198-1.292.198-.98 0-1.488-.442-1.488-1.39v-5.79h-2.224v5.74c0 2.29 1.275 3.27 3.712 3.27 1.374 0 2.748-.26 3.516-.637zm6.737-8.486c-.295-.05-.688-.082-1.146-.082-1.423 0-2.682.278-3.598.638v8.373h2.224V23.54c.278-.114.704-.18 1.113-.18.36 0 .72.05.997.132l.41-1.848zm9.566.114h-2.502l-1.62 5.495c-.195.67-.326 1.423-.326 1.423h-.033s-.13-.752-.327-1.423l-1.62-5.495H83.88l3.19 8.815h2.583l3.173-8.815zm8.57 3.81c0-2.403-1.358-4.006-3.795-4.006-2.566 0-4.087 1.897-4.087 4.595 0 2.715 1.537 4.612 4.448 4.612 1.277 0 2.52-.263 3.256-.64l-.638-1.667c-.622.327-1.57.556-2.453.556-1.292 0-2.24-.64-2.437-1.93l5.675-.77c.032-.26.032-.506.032-.75zm-2.16-.392l-3.695.507c.033-1.652.85-2.502 2.012-2.502 1.03 0 1.685.67 1.685 1.996zm11.857-3.418h-2.502l-1.65 5.544c-.197.654-.295 1.39-.295 1.39h-.033s-.098-.736-.294-1.39l-1.652-5.544h-2.518l3.32 8.815-1.325 3.516h2.338l4.613-12.332zm13.688 5.593c0-1.683-1.21-2.615-2.157-2.926v-.033c.948-.26 1.848-1.258 1.848-2.615 0-1.88-1.406-3.24-4.415-3.24-1.357 0-2.682.263-3.565.64V30.13c.818.36 2.257.64 3.598.64 3.09 0 4.693-1.293 4.693-3.42zm-2.5-5.363c0 .59-.23 1.08-.573 1.357-.343.28-.77.393-1.57.393h-1.456v-3.254c.312-.115.852-.197 1.375-.197 1.52 0 2.224.638 2.224 1.7zm.228 5.217c0 1.227-.817 1.815-2.436 1.815-.49 0-1.063-.082-1.39-.197v-3.45h1.488c.8 0 1.21.13 1.602.376.475.293.736.8.736 1.454zm11.186 2.927V21.76h-2.224v6.983c-.245.1-.72.198-1.292.198-.98 0-1.488-.442-1.488-1.39v-5.79h-2.224v5.74c0 2.29 1.276 3.27 3.712 3.27 1.374 0 2.748-.26 3.516-.637zm4.416-10.988c0-.67-.572-1.194-1.276-1.194-.703 0-1.275.523-1.275 1.194 0 .67.57 1.21 1.274 1.21.704 0 1.276-.54 1.276-1.21zm-.164 11.43V21.76h-2.224v8.815h2.224zm4.285 0V17.736h-2.223v12.838h2.224zm9.34-.44V17.734h-2.24v4.12c-.28-.097-.786-.18-1.26-.18-2.7 0-4.122 1.833-4.122 4.548 0 2.862 1.554 4.546 4.4 4.546 1.34 0 2.583-.295 3.22-.64zm-2.24-1.293c-.18.098-.64.18-1.032.18-1.373 0-2.126-1.047-2.126-2.83 0-1.668.736-2.83 2.126-2.83.393 0 .85.083 1.03.164v5.315zm11.806-3.27c0-2.405-1.357-4.008-3.794-4.008-2.567 0-4.088 1.897-4.088 4.595 0 2.715 1.537 4.612 4.448 4.612 1.275 0 2.518-.263 3.254-.64l-.638-1.667c-.62.327-1.57.556-2.453.556-1.292 0-2.24-.64-2.436-1.93l5.673-.77c.033-.26.033-.506.033-.75zm-2.16-.394l-3.695.507c.034-1.652.852-2.502 2.013-2.502 1.03 0 1.684.67 1.684 1.996zm8.587-3.532c-.294-.05-.687-.082-1.145-.082-1.422 0-2.682.278-3.597.638v8.373h2.225V23.54c.278-.114.703-.18 1.112-.18.36 0 .72.05.997.132l.41-1.848z" fill="#4A4A4A"/><path d="M6.024 28.563c2.948-5.257 6.54-9.917 11.15-13.874 4.212-3.643 9.264-6.716 15.4-9.096l-4.458-2.6c-5.237 2.334-9.737 5.203-13.623 8.552-4.234 3.63-7.665 7.858-10.56 12.465C2.5 20.236 1.467 16.27.81 12.195c-.49.71-.768 1.563-.768 2.458v20.614c0 1.21.506 2.347 1.365 3.15 1.08-2.813 2.296-5.51 3.6-8.065 1.446 2.71 3.215 5.312 5.198 7.643 3.77 4.474 8.5 8.226 14.3 11.04l1.825-1.066c-9.545-4.324-16.112-11.195-20.306-19.404zM.18 30.893V17.507c.698 2.818 1.556 5.583 2.628 8.238-.912 1.68-1.77 3.36-2.627 5.148z" fill="#FFF"/><path d="M.18 30.893c.86-1.788 1.716-3.468 2.628-5.148C1.736 23.09.878 20.325.18 17.507v13.386M14.493 11.546c3.886-3.35 8.386-6.218 13.623-8.553L24.066.63c-1.313-.767-2.93-.767-4.244 0L2.164 10.935c-.546.32-1.004.752-1.354 1.258.656 4.076 1.69 8.04 3.124 11.817 2.894-4.606 6.325-8.833 10.56-12.464" fill="#AAB538"/><path d="M43.846 35.266V14.652c0-1.533-.81-2.95-2.122-3.716l-9.15-5.342c-6.136 2.38-11.188 5.453-15.4 9.095-4.61 3.956-8.202 8.616-11.15 13.873 4.194 8.21 10.76 15.08 20.306 19.404l15.394-8.985c1.313-.766 2.122-2.183 2.122-3.716" fill="#05446A"/><path d="M10.205 37.993c-1.983-2.33-3.752-4.932-5.2-7.642-1.302 2.557-2.52 5.253-3.598 8.065.228.214.48.406.757.567L19.822 49.29c1.313.766 2.93.766 4.244 0l.44-.258c-5.802-2.813-10.532-6.565-14.3-11.04" fill="#05446A"/></g></svg>