<?xml version="1.0" encoding="UTF-8" standalone="no"?>
<svg width="18px" height="18px" viewBox="0 0 18 18" version="1.1" xmlns="http://www.w3.org/2000/svg" xmlns:xlink="http://www.w3.org/1999/xlink" xmlns:sketch="http://www.bohemiancoding.com/sketch/ns">
    <!-- Generator: Sketch 3.3.3 (12072) - http://www.bohemiancoding.com/sketch -->
    <title>Shape Copy 5</title>
    <desc>Created with Sketch.</desc>
    <defs></defs>
    <g id="Page-1" stroke="none" stroke-width="1" fill="none" fill-rule="evenodd" sketch:type="MSPage">
        <g id="Dashboard-Sign-In-Panel" sketch:type="MSArtboardGroup" transform="translate(-1270.000000, -137.000000)" fill="#000000" opacity="0.549965019">
            <path d="M1287.54455,147.944868 C1287.01738,147.439663 1286.73183,146.73677 1286.73183,146.011911 C1286.73183,145.287053 1287.01738,144.606125 1287.54455,144.078955 C1287.63241,143.991093 1287.72027,143.925197 1287.8301,143.837335 C1287.98385,143.727508 1288.02778,143.52982 1287.98385,143.354096 C1287.80813,142.717099 1287.54455,142.102068 1287.23703,141.530967 C1287.14917,141.377209 1286.97344,141.289348 1286.79772,141.311313 C1286.64396,141.333278 1286.53414,141.333278 1286.42431,141.333278 C1284.9087,141.333278 1283.67863,140.103215 1283.67863,138.609567 C1283.67863,138.49974 1283.67863,138.367948 1283.7006,138.236155 C1283.72256,138.060432 1283.6347,137.884709 1283.48094,137.796847 C1282.90984,137.489331 1282.29481,137.225746 1281.65781,137.050023 C1281.48209,137.006092 1281.2844,137.071988 1281.17458,137.203781 C1281.08671,137.313608 1280.99885,137.423435 1280.93296,137.489331 C1280.40579,137.994536 1279.72486,138.280086 1279,138.280086 C1278.27514,138.280086 1277.57225,137.994536 1277.06704,137.489331 C1276.97918,137.401469 1276.91329,137.313608 1276.82542,137.203781 C1276.7156,137.050023 1276.51791,137.006092 1276.34219,137.050023 C1275.70519,137.247712 1275.09016,137.489331 1274.51906,137.796847 C1274.3653,137.884709 1274.27744,138.060432 1274.2994,138.236155 C1274.32137,138.389913 1274.32137,138.49974 1274.32137,138.609567 C1274.32137,140.125181 1273.0913,141.333278 1271.57569,141.333278 C1271.46586,141.333278 1271.33407,141.333278 1271.20228,141.311313 C1271.02656,141.289348 1270.85083,141.377209 1270.76297,141.530967 C1270.45545,142.102068 1270.19187,142.717099 1270.01615,143.354096 C1269.97222,143.52982 1270.01615,143.727508 1270.1699,143.837335 C1270.3017,143.925197 1270.38956,144.013059 1270.45545,144.078955 C1271.53176,145.133295 1271.53176,146.868563 1270.45545,147.944868 C1270.36759,148.032729 1270.27973,148.098626 1270.1699,148.186487 C1270.01615,148.296314 1269.97222,148.494003 1270.01615,148.669726 C1270.21383,149.306723 1270.45545,149.921755 1270.76297,150.492856 C1270.85083,150.646614 1271.02656,150.734475 1271.20228,150.71251 C1271.35604,150.690544 1271.46586,150.690544 1271.57569,150.690544 C1273.0913,150.690544 1274.32137,151.920608 1274.32137,153.414256 C1274.32137,153.524083 1274.32137,153.655875 1274.2994,153.787668 C1274.27744,153.963391 1274.3653,154.139114 1274.51906,154.226976 C1275.09016,154.534492 1275.70519,154.798077 1276.34219,154.9738 C1276.51791,155.017731 1276.7156,154.9738 1276.82542,154.820042 C1276.91329,154.710215 1277.00115,154.600388 1277.06704,154.534492 C1277.59421,154.029287 1278.27514,153.743737 1279,153.743737 C1279.72486,153.743737 1280.42775,154.029287 1280.93296,154.534492 C1281.02082,154.622353 1281.08671,154.710215 1281.17458,154.820042 C1281.26244,154.929869 1281.39423,154.995765 1281.52602,154.995765 C1281.56995,154.995765 1281.61388,154.995765 1281.65781,154.9738 C1282.29481,154.776111 1282.90984,154.534492 1283.48094,154.226976 C1283.6347,154.139114 1283.72256,153.963391 1283.7006,153.787668 C1283.67863,153.63391 1283.67863,153.524083 1283.67863,153.414256 C1283.67863,151.898642 1284.9087,150.690544 1286.42431,150.690544 C1286.53414,150.690544 1286.66593,150.690544 1286.79772,150.71251 C1286.97344,150.734475 1287.14917,150.646614 1287.23703,150.492856 C1287.54455,149.921755 1287.80813,149.306723 1287.98385,148.669726 C1288.02778,148.494003 1287.98385,148.296314 1287.8301,148.186487 C1287.72027,148.098626 1287.61044,148.032729 1287.54455,147.944868 L1287.54455,147.944868 Z M1286.60003,149.811928 L1286.40234,149.811928 C1284.40349,149.811928 1282.77805,151.437368 1282.77805,153.414256 L1282.77805,153.611944 C1282.4266,153.787668 1282.05319,153.941426 1281.65781,154.073218 C1281.61388,154.029287 1281.56995,153.985356 1281.52602,153.941426 C1280.84509,153.260498 1279.94451,152.887086 1278.97803,152.887086 C1278.01156,152.887086 1277.11097,153.260498 1276.43005,153.941426 C1276.38612,153.985356 1276.34219,154.029287 1276.29825,154.073218 C1275.92484,153.941426 1275.55143,153.787668 1275.17802,153.611944 L1275.17802,153.414256 C1275.17802,151.415403 1273.55258,149.811928 1271.55372,149.811928 L1271.35604,149.811928 C1271.18031,149.460481 1271.02656,149.087069 1270.89476,148.691692 C1270.93869,148.647761 1270.98262,148.60383 1271.02656,148.559899 C1272.43234,147.154113 1272.43234,144.86971 1271.02656,143.441958 C1270.98262,143.398027 1270.93869,143.354096 1270.89476,143.310166 C1271.02656,142.936754 1271.18031,142.563342 1271.35604,142.18993 L1271.55372,142.18993 C1273.55258,142.18993 1275.17802,140.564489 1275.17802,138.587602 L1275.17802,138.389913 C1275.52946,138.21419 1275.90288,138.060432 1276.29825,137.928639 C1276.34219,137.97257 1276.38612,138.016501 1276.43005,138.060432 C1277.11097,138.74136 1278.01156,139.114772 1278.97803,139.114772 C1279.94451,139.114772 1280.84509,138.74136 1281.52602,138.060432 C1281.56995,138.016501 1281.61388,137.97257 1281.65781,137.928639 C1282.03123,138.060432 1282.40464,138.21419 1282.77805,138.389913 L1282.77805,138.587602 C1282.77805,140.586454 1284.40349,142.18993 1286.40234,142.18993 L1286.60003,142.18993 C1286.77576,142.541376 1286.92951,142.914788 1287.06131,143.310166 C1287.01738,143.354096 1286.97344,143.398027 1286.92951,143.441958 C1286.24859,144.122886 1285.87517,145.023468 1285.87517,145.989946 C1285.87517,146.956424 1286.24859,147.857006 1286.92951,148.537934 C1286.97344,148.581865 1287.01738,148.625796 1287.06131,148.669726 C1286.92951,149.087069 1286.77576,149.460481 1286.60003,149.811928 L1286.60003,149.811928 Z M1279,140.784143 C1276.12253,140.784143 1273.77223,143.134442 1273.77223,146.011911 C1273.77223,148.889381 1276.12253,151.23968 1279,151.23968 C1281.87747,151.23968 1284.22777,148.889381 1284.22777,146.011911 C1284.22777,143.134442 1281.87747,140.784143 1279,140.784143 L1279,140.784143 Z M1279,150.361063 C1276.60577,150.361063 1274.65085,148.406141 1274.65085,146.011911 C1274.65085,143.617681 1276.60577,141.66276 1279,141.66276 C1281.39423,141.66276 1283.34915,143.617681 1283.34915,146.011911 C1283.34915,148.406141 1281.39423,150.361063 1279,150.361063 L1279,150.361063 Z" id="Shape-Copy-5" sketch:type="MSShapeGroup"></path>
        </g>
    </g>
</svg>