<?xml version="1.0" encoding="UTF-8" standalone="no"?>
<svg width="14px" height="16px" viewBox="0 0 14 16" version="1.1" xmlns="http://www.w3.org/2000/svg" xmlns:xlink="http://www.w3.org/1999/xlink" xmlns:sketch="http://www.bohemiancoding.com/sketch/ns">
    <!-- Generator: Sketch 3.3.3 (12072) - http://www.bohemiancoding.com/sketch -->
    <title>right-arrow11 copy</title>
    <desc>Created with Sketch.</desc>
    <defs></defs>
    <g id="Page-1" stroke="none" stroke-width="1" fill="none" fill-rule="evenodd" sketch:type="MSPage">
        <g id="Dashboard-Sign-In-Panel" sketch:type="MSArtboardGroup" transform="translate(-1274.000000, -88.000000)" fill="#000000">
            <g id="right-arrow11-copy" sketch:type="MSLayerGroup" transform="translate(1274.000000, 88.000000)">
                <g id="Group" sketch:type="MSShapeGroup">
                    <path d="M5.33150685,15.4378378 L0.580821918,15.4378378 L0.580821918,0.551351351 L5.33150685,0.551351351 C5.488,0.551351351 5.6109589,0.430054054 5.6109589,0.275675676 C5.6109589,0.121297297 5.488,0 5.33150685,0 L0.301369863,0 C0.144876712,0 0.0219178082,0.121297297 0.0219178082,0.275675676 L0.0219178082,15.7135135 C0.0219178082,15.8678919 0.144876712,15.9891892 0.301369863,15.9891892 L5.33150685,15.9891892 C5.488,15.9891892 5.6109589,15.8678919 5.6109589,15.7135135 C5.6109589,15.5591351 5.48241096,15.4378378 5.33150685,15.4378378 L5.33150685,15.4378378 Z" id="Shape"></path>
                    <path d="M13.9721644,8.09935135 C13.9777534,8.08832432 13.9777534,8.08281081 13.9833425,8.07178378 C13.9833425,8.06627027 13.9889315,8.05524324 13.9889315,8.04972973 C13.9945205,8.03318919 13.9945205,8.01664865 13.9945205,7.99459459 L13.9945205,7.99459459 C13.9945205,7.97805405 13.9945205,7.956 13.9889315,7.93945946 C13.9889315,7.93394595 13.9833425,7.92291892 13.9833425,7.91740541 C13.9833425,7.90637838 13.9777534,7.90086486 13.9721644,7.88983784 C13.9665753,7.87881081 13.9609863,7.8732973 13.9553973,7.86227027 C13.9498082,7.85675676 13.9498082,7.84572973 13.9442192,7.84021622 C13.9330411,7.82367568 13.921863,7.81264865 13.9106849,7.79610811 L11.1161644,5.03935135 C11.0043836,4.92908108 10.8311233,4.92908108 10.7193425,5.03935135 C10.6075616,5.14962162 10.6075616,5.32054054 10.7193425,5.43081081 L13.0387945,7.71891892 L3.09589041,7.71891892 C2.93939726,7.71891892 2.81643836,7.84021622 2.81643836,7.99459459 C2.81643836,8.14897297 2.93939726,8.27027027 3.09589041,8.27027027 L13.0387945,8.27027027 L10.7193425,10.5583784 C10.6075616,10.6686486 10.6075616,10.8395676 10.7193425,10.9498378 C10.7752329,11.004973 10.8478904,11.0325405 10.9149589,11.0325405 C10.9820274,11.0325405 11.060274,11.004973 11.1105753,10.9498378 L13.9050959,8.19308108 C13.916274,8.18205405 13.9274521,8.16551351 13.9386301,8.14897297 C13.9442192,8.14345946 13.9442192,8.13794595 13.9498082,8.12691892 C13.9609863,8.11589189 13.9665753,8.11037838 13.9721644,8.09935135 L13.9721644,8.09935135 Z" id="Shape"></path>
                </g>
            </g>
        </g>
    </g>
</svg>