<?xml version="1.0" encoding="UTF-8" standalone="no"?>
<svg width="29px" height="30px" viewBox="0 0 29 30" version="1.1" xmlns="http://www.w3.org/2000/svg" xmlns:xlink="http://www.w3.org/1999/xlink" xmlns:sketch="http://www.bohemiancoding.com/sketch/ns">
    <!-- Generator: Sketch 3.3.3 (12072) - http://www.bohemiancoding.com/sketch -->
    <title>user copy</title>
    <desc>Created with Sketch.</desc>
    <defs>
        <filter x="-50%" y="-50%" width="200%" height="200%" filterUnits="objectBoundingBox" id="filter-1">
            <feOffset dx="0" dy="1" in="SourceAlpha" result="shadowOffsetOuter1"></feOffset>
            <feGaussianBlur stdDeviation="0" in="shadowOffsetOuter1" result="shadowBlurOuter1"></feGaussianBlur>
            <feColorMatrix values="0 0 0 0 1   0 0 0 0 1   0 0 0 0 1  0 0 0 0.7 0" in="shadowBlurOuter1" type="matrix" result="shadowMatrixOuter1"></feColorMatrix>
            <feMerge>
                <feMergeNode in="shadowMatrixOuter1"></feMergeNode>
                <feMergeNode in="SourceGraphic"></feMergeNode>
            </feMerge>
        </filter>
    </defs>
    <g id="Page-1" stroke="none" stroke-width="1" fill="none" fill-rule="evenodd" sketch:type="MSPage">
        <g id="Survey-Landing" sketch:type="MSArtboardGroup" transform="translate(-1277.000000, -21.000000)" filter="url(#filter-1)" fill="#000000" opacity="0.340426772">
            <path d="M1306,35.5017059 C1306,27.5110212 1299.48898,21 1291.49829,21 C1283.50761,21 1277,27.5110212 1277,35.5017059 C1277,39.9029297 1278.99683,43.8622827 1282.10334,46.5235539 C1282.14101,46.5612255 1282.17868,46.5988971 1282.25061,46.6331569 C1284.76461,48.7430016 1287.98418,50 1291.53597,50 C1295.01241,50 1298.23198,48.7430016 1300.74598,46.7085 C1300.89325,46.6708284 1301.00627,46.5612255 1301.0782,46.4482108 C1304.07856,43.749268 1306,39.8652582 1306,35.5017059 L1306,35.5017059 Z M1278.33234,35.5017059 C1278.33234,28.2508529 1284.25085,22.3323415 1291.50171,22.3323415 C1298.75256,22.3323415 1304.67107,28.2508529 1304.67107,35.5017059 C1304.67107,39.0534951 1303.2668,42.2696046 1300.97201,44.6397859 C1300.60211,42.8998333 1299.49239,39.9406013 1296.08788,38.0191618 C1296.86538,37.0567124 1297.3072,35.7997141 1297.3072,34.4673725 C1297.3072,31.2854755 1294.71786,28.6961356 1291.53597,28.6961356 C1288.35407,28.6961356 1285.76473,31.2854755 1285.76473,34.4673725 C1285.76473,35.7997141 1286.24422,37.0190408 1286.98406,38.0191618 C1283.54874,39.9406013 1282.43902,42.8998807 1282.10675,44.6397859 C1279.77429,42.3073235 1278.33234,39.0534951 1278.33234,35.5017059 L1278.33234,35.5017059 Z M1287.06281,34.501585 C1287.06281,32.0595196 1289.05964,30.0626895 1291.50171,30.0626895 C1293.94377,30.0626895 1295.9406,32.0595196 1295.9406,34.501585 C1295.9406,36.9436503 1293.94377,38.9404804 1291.50171,38.9404804 C1289.05964,38.9404804 1287.06281,36.9436503 1287.06281,34.501585 L1287.06281,34.501585 Z M1283.2884,45.7837696 C1283.36375,44.7117173 1283.95284,41.084585 1287.94992,39.0500833 C1288.95004,39.8275866 1290.16936,40.2694101 1291.50171,40.2694101 C1292.83405,40.2694101 1294.09105,39.789915 1295.09117,39.0124118 C1299.05052,41.0469134 1299.67734,44.5987026 1299.79035,45.746098 C1297.53323,47.557982 1294.64934,48.6676585 1291.54279,48.6676585 C1288.3952,48.6710703 1285.54552,47.599018 1283.2884,45.7837696 L1283.2884,45.7837696 Z" id="user-copy" sketch:type="MSShapeGroup"></path>
        </g>
    </g>
</svg>