<?xml version="1.0" encoding="UTF-8" standalone="no"?>
<svg width="29px" height="29px" viewBox="0 0 29 29" version="1.1" xmlns="http://www.w3.org/2000/svg" xmlns:xlink="http://www.w3.org/1999/xlink" xmlns:sketch="http://www.bohemiancoding.com/sketch/ns">
    <!-- Generator: Sketch 3.3.3 (12072) - http://www.bohemiancoding.com/sketch -->
    <title>user</title>
    <desc>Created with Sketch.</desc>
    <defs></defs>
    <g id="Page-1" stroke="none" stroke-width="1" fill="none" fill-rule="evenodd" sketch:type="MSPage">
        <g id="user" sketch:type="MSLayerGroup" fill="#499BE2">
            <g id="Page-1" sketch:type="MSShapeGroup">
                <g id="Survey-Landing">
                    <path d="M29,14.5017059 C29,6.5110212 22.48898,0 14.49829,0 C6.50761,0 0,6.5110212 0,14.5017059 C0,18.9029297 1.99683,22.8622827 5.10334,25.5235539 C5.14101,25.5612255 5.17868,25.5988971 5.25061,25.6331569 C7.76461,27.7430016 10.98418,29 14.53597,29 C18.01241,29 21.23198,27.7430016 23.74598,25.7085 C23.89325,25.6708284 24.00627,25.5612255 24.0782,25.4482108 C27.07856,22.749268 29,18.8652582 29,14.5017059 L29,14.5017059 L29,14.5017059 Z M1.33234,14.5017059 C1.33234,7.2508529 7.25085,1.3323415 14.50171,1.3323415 C21.75256,1.3323415 27.67107,7.2508529 27.67107,14.5017059 C27.67107,18.0534951 26.2668,21.2696046 23.97201,23.6397859 C23.60211,21.8998333 22.49239,18.9406013 19.08788,17.0191618 C19.86538,16.0567124 20.3072,14.7997141 20.3072,13.4673725 C20.3072,10.2854755 17.71786,7.6961356 14.53597,7.6961356 C11.35407,7.6961356 8.76473,10.2854755 8.76473,13.4673725 C8.76473,14.7997141 9.24422,16.0190408 9.98406,17.0191618 C6.54874,18.9406013 5.43902,21.8998807 5.10675,23.6397859 C2.77429,21.3073235 1.33234,18.0534951 1.33234,14.5017059 L1.33234,14.5017059 L1.33234,14.5017059 Z M10.06281,13.501585 C10.06281,11.0595196 12.05964,9.0626895 14.50171,9.0626895 C16.94377,9.0626895 18.9406,11.0595196 18.9406,13.501585 C18.9406,15.9436503 16.94377,17.9404804 14.50171,17.9404804 C12.05964,17.9404804 10.06281,15.9436503 10.06281,13.501585 L10.06281,13.501585 L10.06281,13.501585 Z M6.2884,24.7837696 C6.36375,23.7117173 6.95284,20.084585 10.94992,18.0500833 C11.95004,18.8275866 13.16936,19.2694101 14.50171,19.2694101 C15.83405,19.2694101 17.09105,18.789915 18.09117,18.0124118 C22.05052,20.0469134 22.67734,23.5987026 22.79035,24.746098 C20.53323,26.557982 17.64934,27.6676585 14.54279,27.6676585 C11.3952,27.6710703 8.54552,26.599018 6.2884,24.7837696 L6.2884,24.7837696 L6.2884,24.7837696 Z" id="user-copy"></path>
                </g>
            </g>
        </g>
    </g>
</svg>