<?xml version="1.0" encoding="UTF-8" standalone="no"?>
<svg width="228px" height="228px" viewBox="0 0 228 228" version="1.1" xmlns="http://www.w3.org/2000/svg" xmlns:xlink="http://www.w3.org/1999/xlink" xmlns:sketch="http://www.bohemiancoding.com/sketch/ns">
    <!-- Generator: Sketch 3.3.3 (12072) - http://www.bohemiancoding.com/sketch -->
    <title>check</title>
    <desc>Created with Sketch.</desc>
    <defs></defs>
    <g id="Page-1" stroke="none" stroke-width="1" fill="none" fill-rule="evenodd" sketch:type="MSPage">
        <g id="check" sketch:type="MSArtboardGroup">
            <rect id="Rectangle-1-Copy-3" stroke="#000000" stroke-width="2" sketch:type="MSShapeGroup" x="0" y="0" width="228" height="228" rx="8"></rect>
            <g id="Imported-Layers" sketch:type="MSLayerGroup" transform="translate(67.000000, 68.000000)" fill="#000000">
                <g id="Group" sketch:type="MSShapeGroup">
                    <path d="M90.3171642,11.3992537 L40.3358209,11.3992537 C38.8837313,11.3992537 37.7052239,12.5777612 37.7052239,14.0298507 C37.7052239,15.4819403 38.8837313,16.6604478 40.3358209,16.6604478 L90.3171642,16.6604478 C91.7692537,16.6604478 92.9477612,15.4819403 92.9477612,14.0298507 C92.9477612,12.5777612 91.7692537,11.3992537 90.3171642,11.3992537 L90.3171642,11.3992537 Z" id="Fill-1"></path>
                    <path d="M90.3171642,42.9664179 L40.3358209,42.9664179 C38.8837313,42.9664179 37.7052239,44.1449254 37.7052239,45.5970149 C37.7052239,47.0491045 38.8837313,48.2276119 40.3358209,48.2276119 L90.3171642,48.2276119 C91.7692537,48.2276119 92.9477612,47.0491045 92.9477612,45.5970149 C92.9477612,44.1449254 91.7692537,42.9664179 90.3171642,42.9664179 L90.3171642,42.9664179 Z" id="Fill-2"></path>
                    <path d="M90.3171642,74.5335821 L40.3358209,74.5335821 C38.8837313,74.5335821 37.7052239,75.7120896 37.7052239,77.1641791 C37.7052239,78.6162687 38.8837313,79.7947761 40.3358209,79.7947761 L90.3171642,79.7947761 C91.7692537,79.7947761 92.9477612,78.6162687 92.9477612,77.1641791 C92.9477612,75.7120896 91.7692537,74.5335821 90.3171642,74.5335821 L90.3171642,74.5335821 Z" id="Fill-3"></path>
                    <path d="M3.50746269,27.1828358 L24.5522388,27.1828358 C26.0043284,27.1828358 27.1828358,26.0043284 27.1828358,24.5522388 L27.1828358,3.50746269 C27.1828358,2.05537313 26.0043284,0.876865672 24.5522388,0.876865672 L3.50746269,0.876865672 C2.05537313,0.876865672 0.876865672,2.05537313 0.876865672,3.50746269 L0.876865672,24.5522388 C0.876865672,26.0043284 2.05537313,27.1828358 3.50746269,27.1828358 L3.50746269,27.1828358 Z M6.1380597,6.1380597 L21.9216418,6.1380597 L21.9216418,21.9216418 L6.1380597,21.9216418 L6.1380597,6.1380597 Z" id="Fill-4"></path>
                    <path d="M0.876865672,56.119403 C0.876865672,57.5714925 2.05537313,58.75 3.50746269,58.75 L24.5522388,58.75 C26.0043284,58.75 27.1828358,57.5714925 27.1828358,56.119403 L27.1828358,35.0746269 C27.1828358,33.6225373 26.0043284,32.4440299 24.5522388,32.4440299 L3.50746269,32.4440299 C2.05537313,32.4440299 0.876865672,33.6225373 0.876865672,35.0746269 L0.876865672,56.119403 Z M6.1380597,37.7052239 L21.9216418,37.7052239 L21.9216418,53.488806 L6.1380597,53.488806 L6.1380597,37.7052239 Z" id="Fill-5"></path>
                    <path d="M0.876865672,87.6865672 C0.876865672,89.1386567 2.05537313,90.3171642 3.50746269,90.3171642 L24.5522388,90.3171642 C26.0043284,90.3171642 27.1828358,89.1386567 27.1828358,87.6865672 L27.1828358,66.641791 C27.1828358,65.1897015 26.0043284,64.011194 24.5522388,64.011194 L3.50746269,64.011194 C2.05537313,64.011194 0.876865672,65.1897015 0.876865672,66.641791 L0.876865672,87.6865672 Z M6.1380597,69.2723881 L21.9216418,69.2723881 L21.9216418,85.0559701 L6.1380597,85.0559701 L6.1380597,69.2723881 Z" id="Fill-6"></path>
                </g>
            </g>
        </g>
    </g>
</svg>