<?xml version="1.0" encoding="UTF-8" standalone="no"?>
<svg width="228px" height="228px" viewBox="0 0 228 228" version="1.1" xmlns="http://www.w3.org/2000/svg" xmlns:xlink="http://www.w3.org/1999/xlink" xmlns:sketch="http://www.bohemiancoding.com/sketch/ns">
    <!-- Generator: Sketch 3.3.3 (12072) - http://www.bohemiancoding.com/sketch -->
    <title>grid</title>
    <desc>Created with Sketch.</desc>
    <defs></defs>
    <g id="Page-1" stroke="none" stroke-width="1" fill="none" fill-rule="evenodd" sketch:type="MSPage">
        <g id="grid" sketch:type="MSArtboardGroup">
            <rect id="Rectangle-1-Copy-5" stroke="#000000" stroke-width="2" sketch:type="MSShapeGroup" x="0" y="0" width="228" height="228" rx="8"></rect>
            <g id="Group" sketch:type="MSLayerGroup" transform="translate(72.000000, 72.000000)" fill="#000000">
                <path d="M81.0661765,0 L2.31617647,0 C1.03764706,0 0,1.03764706 0,2.31617647 L0,81.0661765 C0,82.3447059 1.03764706,83.3823529 2.31617647,83.3823529 L81.0661765,83.3823529 C82.3447059,83.3823529 83.3823529,82.3447059 83.3823529,81.0661765 L83.3823529,2.31617647 C83.3823529,1.03764706 82.3447059,0 81.0661765,0 Z M26.5588235,78.4411765 L4.94117647,78.4411765 L4.94117647,56.8235294 L26.5588235,56.8235294 L26.5588235,78.4411765 Z M26.5588235,52.5 L4.94117647,52.5 L4.94117647,30.8823529 L26.5588235,30.8823529 L26.5588235,52.5 Z M26.5588235,26.5588235 L4.94117647,26.5588235 L4.94117647,4.94117647 L26.5588235,4.94117647 L26.5588235,26.5588235 Z M52.5,78.4411765 L30.8823529,78.4411765 L30.8823529,56.8235294 L52.5,56.8235294 L52.5,78.4411765 Z M52.5,52.5 L30.8823529,52.5 L30.8823529,30.8823529 L52.5,30.8823529 L52.5,52.5 Z M52.5,26.5588235 L30.8823529,26.5588235 L30.8823529,4.94117647 L52.5,4.94117647 L52.5,26.5588235 Z M78.4411765,78.4411765 L56.8235294,78.4411765 L56.8235294,56.8235294 L78.4411765,56.8235294 L78.4411765,78.4411765 Z M78.4411765,52.5 L56.8235294,52.5 L56.8235294,30.8823529 L78.4411765,30.8823529 L78.4411765,52.5 Z M78.4411765,26.5588235 L56.8235294,26.5588235 L56.8235294,4.94117647 L78.4411765,4.94117647 L78.4411765,26.5588235 Z" id="Path-Copy-10" sketch:type="MSShapeGroup"></path>
            </g>
        </g>
    </g>
</svg>