<?xml version="1.0" encoding="UTF-8" standalone="no"?>
<svg width="228px" height="228px" viewBox="0 0 228 228" version="1.1" xmlns="http://www.w3.org/2000/svg" xmlns:xlink="http://www.w3.org/1999/xlink" xmlns:sketch="http://www.bohemiancoding.com/sketch/ns">
    <!-- Generator: Sketch 3.3.3 (12072) - http://www.bohemiancoding.com/sketch -->
    <title>radio</title>
    <desc>Created with Sketch.</desc>
    <defs></defs>
    <g id="Page-1" stroke="none" stroke-width="1" fill="none" fill-rule="evenodd" sketch:type="MSPage">
        <g id="radio" sketch:type="MSArtboardGroup">
            <rect id="Rectangle-1-Copy-2" stroke="#000000" stroke-width="2" sketch:type="MSShapeGroup" x="0" y="0" width="228" height="228" rx="8"></rect>
            <g id="Imported-Layers" sketch:type="MSLayerGroup" transform="translate(20.000000, 56.000000)"></g>
            <g id="Group" sketch:type="MSLayerGroup" transform="translate(69.000000, 70.000000)" fill="#000000">
                <path d="M13.4328358,26.0261194 C20.3749254,26.0261194 26.0261194,20.3749254 26.0261194,13.4328358 C26.0261194,6.49074627 20.3749254,0.839552239 13.4328358,0.839552239 C6.49074627,0.839552239 0.839552239,6.49074627 0.839552239,13.4328358 C0.839552239,20.3749254 6.49074627,26.0261194 13.4328358,26.0261194 L13.4328358,26.0261194 Z M13.4328358,5.87686567 C17.5997015,5.87686567 20.988806,9.26597015 20.988806,13.4328358 C20.988806,17.5997015 17.5997015,20.988806 13.4328358,20.988806 C9.26597015,20.988806 5.87686567,17.5997015 5.87686567,13.4328358 C5.87686567,9.26597015 9.26597015,5.87686567 13.4328358,5.87686567 L13.4328358,5.87686567 Z" id="Fill-1" sketch:type="MSShapeGroup"></path>
                <path d="M13.4328358,56.25 C20.3749254,56.25 26.0261194,50.598806 26.0261194,43.6567164 C26.0261194,36.7146269 20.3749254,31.0634328 13.4328358,31.0634328 C6.49074627,31.0634328 0.839552239,36.7146269 0.839552239,43.6567164 C0.839552239,50.598806 6.49074627,56.25 13.4328358,56.25 L13.4328358,56.25 Z M13.4328358,36.1007463 C17.5997015,36.1007463 20.988806,39.4898507 20.988806,43.6567164 C20.988806,47.8235821 17.5997015,51.2126866 13.4328358,51.2126866 C9.26597015,51.2126866 5.87686567,47.8235821 5.87686567,43.6567164 C5.87686567,39.4898507 9.26597015,36.1007463 13.4328358,36.1007463 L13.4328358,36.1007463 Z" id="Fill-2" sketch:type="MSShapeGroup"></path>
                <path d="M13.4328358,86.4738806 C20.3749254,86.4738806 26.0261194,80.8226866 26.0261194,73.880597 C26.0261194,66.9385075 20.3749254,61.2873134 13.4328358,61.2873134 C6.49074627,61.2873134 0.839552239,66.9385075 0.839552239,73.880597 C0.839552239,80.8226866 6.49074627,86.4738806 13.4328358,86.4738806 L13.4328358,86.4738806 Z M13.4328358,66.3246269 C17.5997015,66.3246269 20.988806,69.7137313 20.988806,73.880597 C20.988806,78.0474627 17.5997015,81.4365672 13.4328358,81.4365672 C9.26597015,81.4365672 5.87686567,78.0474627 5.87686567,73.880597 C5.87686567,69.7137313 9.26597015,66.3246269 13.4328358,66.3246269 L13.4328358,66.3246269 Z" id="Fill-3" sketch:type="MSShapeGroup"></path>
                <path d="M86.4738806,10.9141791 L38.619403,10.9141791 C37.2291045,10.9141791 36.1007463,12.0425373 36.1007463,13.4328358 C36.1007463,14.8231343 37.2291045,15.9514925 38.619403,15.9514925 L86.4738806,15.9514925 C87.8641791,15.9514925 88.9925373,14.8231343 88.9925373,13.4328358 C88.9925373,12.0425373 87.8641791,10.9141791 86.4738806,10.9141791 L86.4738806,10.9141791 Z" id="Fill-4" sketch:type="MSShapeGroup"></path>
                <path d="M86.4738806,41.1380597 L38.619403,41.1380597 C37.2291045,41.1380597 36.1007463,42.2664179 36.1007463,43.6567164 C36.1007463,45.0470149 37.2291045,46.1753731 38.619403,46.1753731 L86.4738806,46.1753731 C87.8641791,46.1753731 88.9925373,45.0470149 88.9925373,43.6567164 C88.9925373,42.2664179 87.8641791,41.1380597 86.4738806,41.1380597 L86.4738806,41.1380597 Z" id="Fill-5" sketch:type="MSShapeGroup"></path>
                <path d="M86.4738806,71.3619403 L38.619403,71.3619403 C37.2291045,71.3619403 36.1007463,72.4902985 36.1007463,73.880597 C36.1007463,75.2708955 37.2291045,76.3992537 38.619403,76.3992537 L86.4738806,76.3992537 C87.8641791,76.3992537 88.9925373,75.2708955 88.9925373,73.880597 C88.9925373,72.4902985 87.8641791,71.3619403 86.4738806,71.3619403 L86.4738806,71.3619403 Z" id="Fill-6" sketch:type="MSShapeGroup"></path>
                <path d="M13.4328358,48.6940299 C16.2080597,48.6940299 18.4701493,46.4319403 18.4701493,43.6567164 C18.4701493,40.8814925 16.2080597,38.619403 13.4328358,38.619403 C10.6576119,38.619403 8.39552239,40.8814925 8.39552239,43.6567164 C8.39552239,46.4319403 10.6576119,48.6940299 13.4328358,48.6940299 L13.4328358,48.6940299 Z" id="Fill-7" sketch:type="MSShapeGroup"></path>
            </g>
        </g>
    </g>
</svg>