<?xml version="1.0" encoding="UTF-8" standalone="no"?>
<svg width="228px" height="228px" viewBox="0 0 228 228" version="1.1" xmlns="http://www.w3.org/2000/svg" xmlns:xlink="http://www.w3.org/1999/xlink" xmlns:sketch="http://www.bohemiancoding.com/sketch/ns">
    <!-- Generator: Sketch 3.3.3 (12072) - http://www.bohemiancoding.com/sketch -->
    <title>select</title>
    <desc>Created with Sketch.</desc>
    <defs></defs>
    <g id="Page-1" stroke="none" stroke-width="1" fill="none" fill-rule="evenodd" sketch:type="MSPage">
        <g id="select" sketch:type="MSArtboardGroup">
            <rect id="Rectangle-1-Copy" stroke="#000000" stroke-width="2" sketch:type="MSShapeGroup" x="0" y="0" width="228" height="228" rx="8"></rect>
            <g id="Fill-1-+-Fill-2-+-Fill-3" sketch:type="MSLayerGroup" transform="translate(62.000000, 91.000000)" fill="#000000">
                <path d="M99.3912058,0.748709648 L3.93072565,0.748709648 C2.38089668,0.748709648 1.12306447,2.00654186 1.12306447,3.55637083 L1.12306447,42.8636273 C1.12306447,44.4134563 2.38089668,45.6712885 3.93072565,45.6712885 L99.3912058,45.6712885 C100.941035,45.6712885 102.198867,44.4134563 102.198867,42.8636273 L102.198867,3.55637083 C102.198867,2.00654186 100.941035,0.748709648 99.3912058,0.748709648 L99.3912058,0.748709648 Z M65.6992716,40.0559662 L6.73838683,40.0559662 L6.73838683,6.36403201 L65.6992716,6.36403201 L65.6992716,40.0559662 Z M96.5835446,40.0559662 L68.5069328,40.0559662 L68.5069328,6.36403201 L96.5835446,6.36403201 L96.5835446,40.0559662 Z" id="Fill-1" sketch:type="MSShapeGroup"></path>
                <path d="M81.5509523,34.0318483 C81.8264774,34.3058761 82.1888529,34.4406438 82.5452387,34.4406438 C82.9016245,34.4406438 83.2639999,34.3058761 83.5395251,34.0318483 L89.1548475,28.416526 C89.5591507,28.0122228 89.6759494,27.4102602 89.4588236,26.8831686 C89.2431952,26.3620667 88.728083,26.0176603 88.160561,26.0176603 L76.9299163,26.0176603 C76.3623944,26.0176603 75.8472822,26.3620667 75.6316538,26.8831686 C75.414528,27.4102602 75.5313267,28.0122228 75.9356299,28.416526 L81.5509523,34.0318483 Z" id="Fill-2" sketch:type="MSShapeGroup"></path>
                <path d="M76.9299163,20.4023379 L88.160561,20.4023379 L88.1845197,20.4023379 C88.9556907,20.4023379 89.5876016,19.770427 89.5876016,18.999256 C89.5876016,18.5365535 89.3659836,18.1217683 89.01409,17.8702019 L83.5395251,12.3941395 C82.9899722,11.8445866 82.1005051,11.8445866 81.5569419,12.3941395 L75.9416196,18.0094619 C75.5373164,18.4137651 75.4205177,19.0157276 75.6376435,19.5428192 C75.8472822,20.0579315 76.3623944,20.4023379 76.9299163,20.4023379 L76.9299163,20.4023379 Z" id="Fill-3" sketch:type="MSShapeGroup"></path>
            </g>
        </g>
    </g>
</svg>