<?xml version="1.0" encoding="UTF-8" standalone="no"?>
<svg width="228px" height="228px" viewBox="0 0 228 228" version="1.1" xmlns="http://www.w3.org/2000/svg" xmlns:xlink="http://www.w3.org/1999/xlink" xmlns:sketch="http://www.bohemiancoding.com/sketch/ns">
    <!-- Generator: Sketch 3.3.3 (12072) - http://www.bohemiancoding.com/sketch -->
    <title>slider</title>
    <desc>Created with Sketch.</desc>
    <defs></defs>
    <g id="Page-1" stroke="none" stroke-width="1" fill="none" fill-rule="evenodd" sketch:type="MSPage">
        <g id="slider" sketch:type="MSArtboardGroup">
            <rect id="Rectangle-1-Copy-4" stroke="#9B9B9B" stroke-width="4" sketch:type="MSShapeGroup" x="2" y="2" width="225" height="225" rx="8"></rect>
            <g id="Imported-Layers" sketch:type="MSLayerGroup" transform="translate(61.000000, 94.000000)" fill="#000000">
                <g sketch:type="MSShapeGroup">
                    <path d="M102.929348,26.8333333 L62.2228261,26.8333333 L62.2228261,23.9166667 C62.2228261,23.1451111 61.9142319,22.4031111 61.3683768,21.8571111 L55.5531594,16.0237778 C54.4149275,14.8804444 52.5788696,14.8804444 51.4406377,16.0237778 L45.6254203,21.8571111 C45.0857681,22.4031111 44.7771739,23.1451111 44.7771739,23.9166667 L44.7771739,26.8333333 L4.07065217,26.8333333 C2.46565217,26.8333333 1.16304348,28.14 1.16304348,29.75 C1.16304348,31.36 2.46565217,32.6666667 4.07065217,32.6666667 L44.7771739,32.6666667 L44.7771739,38.5 C44.7771739,40.11 46.0797826,41.4166667 47.6847826,41.4166667 L59.3152174,41.4166667 C60.9202174,41.4166667 62.2228261,40.11 62.2228261,38.5 L62.2228261,32.6666667 L102.929348,32.6666667 C104.534348,32.6666667 105.836957,31.36 105.836957,29.75 C105.836957,28.14 104.534348,26.8333333 102.929348,26.8333333 L102.929348,26.8333333 Z M56.4076087,35.5833333 L50.5923913,35.5833333 L50.5923913,25.1253333 L53.5,22.2086667 L56.4076087,25.1253333 L56.4076087,35.5833333 Z" id="Fill-1"></path>
                    <path d="M6.97826087,12.25 C8.58326087,12.25 9.88586957,10.9433333 9.88586957,9.33333333 L9.88586957,3.5 C9.88586957,1.89 8.58326087,0.583333333 6.97826087,0.583333333 C5.37326087,0.583333333 4.07065217,1.89 4.07065217,3.5 L4.07065217,9.33333333 C4.07065217,10.9433333 5.37326087,12.25 6.97826087,12.25 L6.97826087,12.25 Z" id="Fill-2"></path>
                    <path d="M30.2391304,0.583333333 C28.6341304,0.583333333 27.3315217,1.89 27.3315217,3.5 L27.3315217,9.33333333 C27.3315217,10.9433333 28.6341304,12.25 30.2391304,12.25 C31.8441304,12.25 33.1467391,10.9433333 33.1467391,9.33333333 L33.1467391,3.5 C33.1467391,1.89 31.8441304,0.583333333 30.2391304,0.583333333 L30.2391304,0.583333333 Z" id="Fill-3"></path>
                    <path d="M56.4076087,9.33333333 L56.4076087,3.5 C56.4076087,1.89 55.105,0.583333333 53.5,0.583333333 C51.895,0.583333333 50.5923913,1.89 50.5923913,3.5 L50.5923913,9.33333333 C50.5923913,10.9433333 51.895,12.25 53.5,12.25 C55.105,12.25 56.4076087,10.9433333 56.4076087,9.33333333 L56.4076087,9.33333333 Z" id="Fill-4"></path>
                    <path d="M79.6684783,9.33333333 L79.6684783,3.5 C79.6684783,1.89 78.3658696,0.583333333 76.7608696,0.583333333 C75.1558696,0.583333333 73.8532609,1.89 73.8532609,3.5 L73.8532609,9.33333333 C73.8532609,10.9433333 75.1558696,12.25 76.7608696,12.25 C78.3658696,12.25 79.6684783,10.9433333 79.6684783,9.33333333 L79.6684783,9.33333333 Z" id="Fill-5"></path>
                    <path d="M102.929348,9.33333333 L102.929348,3.5 C102.929348,1.89 101.626739,0.583333333 100.021739,0.583333333 C98.4167391,0.583333333 97.1141304,1.89 97.1141304,3.5 L97.1141304,9.33333333 C97.1141304,10.9433333 98.4167391,12.25 100.021739,12.25 C101.626739,12.25 102.929348,10.9433333 102.929348,9.33333333 L102.929348,9.33333333 Z" id="Fill-6"></path>
                </g>
            </g>
        </g>
    </g>
</svg>