<?xml version="1.0" encoding="UTF-8" standalone="no"?>
<svg width="593px" height="593px" viewBox="0 0 593 593" version="1.1" xmlns="http://www.w3.org/2000/svg" xmlns:xlink="http://www.w3.org/1999/xlink" xmlns:sketch="http://www.bohemiancoding.com/sketch/ns">
    <!-- Generator: Sketch 3.3.3 (12072) - http://www.bohemiancoding.com/sketch -->
    <title>splash</title>
    <desc>Created with Sketch.</desc>
    <defs></defs>
    <g id="Page-1" stroke="none" stroke-width="1" fill="none" fill-rule="evenodd" sketch:type="MSPage">
        <g id="splash" sketch:type="MSArtboardGroup" fill="#B4C5D4">
            <g id="Group" sketch:type="MSLayerGroup" transform="translate(182.000000, 199.000000)">
                <path d="M149.616804,174.267117 L21.8678019,174.267117 L21.8678019,20.7144829 L149.616804,20.7144829 L149.616804,32.1827636 L170.641986,15.9360325 L170.641986,0.331525128 L0.842620428,0.331525128 L0.842620428,194.650075 L170.641986,194.650075 L170.641986,93.9891516 L149.616804,110.235883 L149.616804,174.267117 Z" id="Fill-1" sketch:type="MSShapeGroup"></path>
                <path d="M44.1621397,44.2932682 L127.620642,44.2932682 L127.620642,52.8944788 L44.1621397,52.8944788 L44.1621397,44.2932682 Z" id="Fill-2" sketch:type="MSShapeGroup"></path>
                <path d="M44.1621397,70.4103663 L91.6331767,70.4103663 L91.6331767,79.0115769 L44.1621397,79.0115769 L44.1621397,70.4103663 Z" id="Fill-3" sketch:type="MSShapeGroup"></path>
                <path d="M108.193374,80.6094907 L100.876611,108.951435 L130.189537,108.951435 L203.777672,51.9234977 L181.7968,23.566262 L108.193374,80.6094907 Z M127.635933,101.305915 L121.588326,101.305915 L122.857483,92.0624804 L113.614048,90.793324 L115.211962,84.7457173 L124.768863,77.4136631 L137.5063,93.9738606 L127.635933,101.305915 Z" id="Fill-4" sketch:type="MSShapeGroup"></path>
                <path d="M227.341166,20.7144829 L217.784265,8.290512 C214.274971,3.82552801 207.913898,3.19859533 203.448914,6.37913187 L188.157873,18.4896364 L210.138745,46.846872 L225.429786,35.0651249 C229.89477,31.5405399 230.85046,25.1794668 227.341166,20.7144829 L227.341166,20.7144829 Z" id="Fill-5" sketch:type="MSShapeGroup"></path>
            </g>
        </g>
    </g>
</svg>