<?xml version="1.0" encoding="UTF-8" standalone="no"?>
<svg width="228px" height="228px" viewBox="0 0 228 228" version="1.1" xmlns="http://www.w3.org/2000/svg" xmlns:xlink="http://www.w3.org/1999/xlink" xmlns:sketch="http://www.bohemiancoding.com/sketch/ns">
    <!-- Generator: Sketch 3.3.3 (12072) - http://www.bohemiancoding.com/sketch -->
    <title>text</title>
    <desc>Created with Sketch.</desc>
    <defs></defs>
    <g id="Page-1" stroke="none" stroke-width="1" fill="none" fill-rule="evenodd" sketch:type="MSPage">
        <g id="text" sketch:type="MSArtboardGroup">
            <rect id="Rectangle-1" stroke="#000000" stroke-width="2" sketch:type="MSShapeGroup" x="0" y="0" width="228" height="228" rx="8"></rect>
            <g id="Fill-1-+-Fill-2" sketch:type="MSLayerGroup" transform="translate(64.000000, 92.000000)" fill="#000000">
                <path d="M11.1,32.3576 C10.3432,32.3576 9.72426667,32.9765333 9.72426667,33.7333333 C9.72426667,34.4901333 10.3432,35.1090667 11.1,35.1090667 L22.1,35.1090667 C22.8568,35.1090667 23.4757333,34.4901333 23.4757333,33.7333333 C23.4757333,32.9765333 22.8568,32.3576 22.1,32.3576 L17.9757333,32.3576 L17.9757333,13.1090667 L22.1,13.1090667 C22.8568,13.1090667 23.4757333,12.4901333 23.4757333,11.7333333 C23.4757333,10.9765333 22.8568,10.3576 22.1,10.3576 L11.1,10.3576 C10.3432,10.3576 9.72426667,10.9765333 9.72426667,11.7333333 C9.72426667,12.4901333 10.3432,13.1090667 11.1,13.1090667 L15.2242667,13.1090667 L15.2242667,32.3576 L11.1,32.3576 Z" id="Fill-1" sketch:type="MSShapeGroup"></path>
                <path d="M96.35,0.733333333 L2.85,0.733333333 C1.332,0.733333333 0.1,1.96533333 0.1,3.48333333 L0.1,41.9833333 C0.1,43.5013333 1.332,44.7333333 2.85,44.7333333 L96.35,44.7333333 C97.868,44.7333333 99.1,43.5013333 99.1,41.9833333 L99.1,3.48333333 C99.1,1.96533333 97.868,0.733333333 96.35,0.733333333 L96.35,0.733333333 Z M93.6,39.2333333 L5.6,39.2333333 L5.6,6.23333333 L93.6,6.23333333 L93.6,39.2333333 Z" id="Fill-2" sketch:type="MSShapeGroup"></path>
            </g>
        </g>
    </g>
</svg>